<svg width="56" height="56" viewBox="0 0 56 56" fill="none" xmlns="http://www.w3.org/2000/svg">
<g clip-path="url(#clip0_876_1206)">
<g filter="url(#filter0_d_876_1206)">
<path fill-rule="evenodd" clip-rule="evenodd" d="M13.3804 9.2862V46.0584C13.3803 47.1676 13.89 48.1952 14.7228 48.7648C15.5556 49.3344 16.5889 49.3621 17.4442 48.8379L47.473 30.4518C48.3693 29.9026 48.9286 28.8346 48.9286 27.6723C48.9286 26.5101 48.3693 25.442 47.473 24.8928L17.4442 6.50673C16.5889 5.98247 15.5556 6.01021 14.7228 6.57979C13.89 7.14937 13.3803 8.17704 13.3804 9.2862Z" stroke="url(#paint0_linear_876_1206)" stroke-width="1.5" stroke-linecap="round" stroke-linejoin="round"/>
</g>
<g filter="url(#filter1_d_876_1206)">
<path fill-rule="evenodd" clip-rule="evenodd" d="M12.2083 45.4207L48.6378 40.4115C49.7366 40.2605 50.6853 39.6156 51.1361 38.713C51.5869 37.8104 51.4736 36.7829 50.8378 36.007L28.5325 8.76267C27.8663 7.94954 26.732 7.54089 25.5806 7.69922C24.4292 7.85754 23.4473 8.55718 23.0254 9.51992L8.9012 41.7734C8.49833 42.6921 8.66658 43.712 9.34429 44.4595C10.022 45.2069 11.1095 45.5719 12.2083 45.4207Z" stroke="url(#paint1_linear_876_1206)" stroke-width="1.5" stroke-linecap="round" stroke-linejoin="round"/>
</g>
</g>
<defs>
<filter id="filter0_d_876_1206" x="5.07935" y="2.44263" width="52.1519" height="58.4593" filterUnits="userSpaceOnUse" color-interpolation-filters="sRGB">
<feFlood flood-opacity="0" result="BackgroundImageFix"/>
<feColorMatrix in="SourceAlpha" type="matrix" values="0 0 0 0 0 0 0 0 0 0 0 0 0 0 0 0 0 0 127 0" result="hardAlpha"/>
<feOffset dy="4"/>
<feGaussianBlur stdDeviation="2"/>
<feColorMatrix type="matrix" values="0 0 0 0 0 0 0 0 0 0 0 0 0 0 0 0 0 0 0.25 0"/>
<feBlend mode="normal" in2="BackgroundImageFix" result="effect1_dropShadow_876_1206"/>
<feBlend mode="normal" in="SourceGraphic" in2="effect1_dropShadow_876_1206" result="shape"/>
</filter>
<filter id="filter1_d_876_1206" x="-4" y="0" width="64.0034" height="58.614" filterUnits="userSpaceOnUse" color-interpolation-filters="sRGB">
<feFlood flood-opacity="0" result="BackgroundImageFix"/>
<feColorMatrix in="SourceAlpha" type="matrix" values="0 0 0 0 0 0 0 0 0 0 0 0 0 0 0 0 0 0 127 0" result="hardAlpha"/>
<feOffset dy="4"/>
<feGaussianBlur stdDeviation="2"/>
<feColorMatrix type="matrix" values="0 0 0 0 0 0 0 0 0 0 0 0 0 0 0 0 0 0 0.25 0"/>
<feBlend mode="normal" in2="BackgroundImageFix" result="effect1_dropShadow_876_1206"/>
<feBlend mode="normal" in="SourceGraphic" in2="effect1_dropShadow_876_1206" result="shape"/>
</filter>
<linearGradient id="paint0_linear_876_1206" x1="14.2828" y1="6.1322" x2="55.2839" y2="41.0114" gradientUnits="userSpaceOnUse">
<stop stop-color="#0FEFFD"/>
<stop offset="0.515718" stop-color="#FF00F5"/>
<stop offset="0.776042" stop-color="#0FEFFD" stop-opacity="0"/>
</linearGradient>
<linearGradient id="paint1_linear_876_1206" x1="8.96081" y1="44.9563" x2="37.9297" y2="-0.413868" gradientUnits="userSpaceOnUse">
<stop stop-color="#0FEFFD"/>
<stop offset="0.515718" stop-color="#FF00F5"/>
<stop offset="0.776042" stop-color="#0FEFFD" stop-opacity="0"/>
</linearGradient>
<clipPath id="clip0_876_1206">
<rect width="56" height="56" fill="white"/>
</clipPath>
</defs>
</svg>
